# Blender 3.6.2
# www.blender.org
mtllib colored_panes.mtl
o Back_triangle
v -1.514242 -0.155684 0.0 1.0 0.0 0.0 0.33
v 0.485758 -0.155684 0.0 1.0 0.0 0.0 0.33
v -1.514242 1.844316 0.0 1.0 0.0 0.0 0.33
vn -0.0000 -0.0000 1.0000
vt 1.000000 0.000000
vt 0.000000 1.000000
vt 0.000000 0.000000
s 0
f 2/1/1 3/2/1 1/3/1
o Middle_triangle
v -0.362093 -0.308413 1.0 0.0 1.0 0.0 0.33
v 1.637907 -0.308413 1.0 0.0 1.0 0.0 0.33
v -0.362093 1.691587 1.0 0.0 1.0 0.0 0.33
vn -0.0000 -0.0000 1.0000
vt 1.000000 0.000000
vt 0.000000 1.000000
vt 0.000000 0.000000
s 0
f 5/4/2 6/5/2 4/6/2
o Front_triangle
v 0.489905 -1.643668 0.5 0.0 0.0 1.0 0.33
v -1.510095 0.356332 0.5 0.0 0.0 1.0 0.33
v 0.489905 0.356332 0.5 0.0 0.0 1.0 0.33
vn -0.0000 -0.0000 1.0000
vt 1.000000 0.000000
vt 1.000000 1.000000
vt 0.000000 1.000000
s 0
f 7/7/3 9/8/3 8/9/3
