# Blender 3.6.2
# www.blender.org
mtllib colored_panes.mtl
o Plane
v 0.489905 -1.643668 -1.000000 0.4589 0.8902 0.4353
v -1.510095 0.356332 -1.000000 1.0000 0.0039 0.7294
v 0.489905 0.356332 -1.000000 1.0000 0.8862 0.5255
vn -0.0000 -0.0000 1.0000
vt 1.000000 0.000000
vt 1.000000 1.000000
vt 0.000000 1.000000
s 0
f 1/1/1 3/2/1 2/3/1
o Plane.001
v 2.150607 0.315203 -2.718917 1.0000 0.1176 0.1608
v 4.150607 0.315203 -2.718917 0.5255 0.4784 0.8588
v 2.150607 2.315203 -2.718917 1.0000 0.8706 0.0627
vn -0.0000 -0.0000 1.0000
vt 1.000000 0.000000
vt 0.000000 1.000000
vt 0.000000 0.000000
s 0
f 5/4/2 6/5/2 4/6/2
o Plane.002
v -3.103852 1.440039 -3.883557 0.4118 0.1255 1.0000
v -1.103852 1.440039 -3.883557 0.8823 0.9019 0.4628
v -3.103852 3.440039 -3.883557 0.8157 0.1137 0.6393
vn -0.0000 -0.0000 1.0000
vt 1.000000 0.000000
vt 0.000000 1.000000
vt 0.000000 0.000000
s 0
f 8/7/3 9/8/3 7/9/3
