# Blender 3.6.2
# www.blender.org
mtllib colored_panes.mtl
o Red
v -1.514242 -0.155684 -3.883557 1.0000 0.0039 0.1059 0.5
v 0.485758 -0.155684 -3.883557 1.0000 0.0000 0.0902 0.5
v -1.514242 1.844316 -3.883557 1.0000 0.0039 0.0941 0.5
vn -0.0000 -0.0000 1.0000
vt 1.000000 0.000000
vt 0.000000 1.000000
vt 0.000000 0.000000
s 0
f 2/1/1 3/2/1 1/3/1
o Green
v -0.362093 -0.308413 -2.718917 0.0314 1.0000 0.0000
v 1.637907 -0.308413 -2.718917 0.0863 0.9882 0.1333
v -0.362093 1.691587 -2.718917 0.0431 1.0000 0.0000
vn -0.0000 -0.0000 1.0000
vt 1.000000 0.000000
vt 0.000000 1.000000
vt 0.000000 0.000000
s 0
f 5/4/2 6/5/2 4/6/2
o Blue
v 0.489905 -1.643668 -1.000000 0.0196 0.0392 1.0000
v -1.510095 0.356332 -1.000000 0.0078 0.0000 1.0000
v 0.489905 0.356332 -1.000000 0.0863 0.0784 0.9960
vn -0.0000 -0.0000 1.0000
vt 1.000000 0.000000
vt 1.000000 1.000000
vt 0.000000 1.000000
s 0
f 7/7/3 9/8/3 8/9/3
