# Blender 3.6.2
# www.blender.org
mtllib cube.mtl
o Cube
v -0.252984 -0.344492 -0.549928 0.0000 0.6800 0.0709 0.5
v -0.397291 0.079532 -0.327714 0.1342 0.0936 0.6800
v -0.022044 -0.079532 -0.905545 0.6239 0.6800 0.0641
v -0.166351 0.344492 -0.683331 0.6271 0.2000 0.6800
v 0.166351 -0.344492 -0.277609 0.2919 0.2864 0.7056
v 0.022044 0.079532 -0.055395 0.6800 0.1414 0.1466
v 0.397291 -0.079532 -0.633225 0.6800 0.3032 0.1931
v 0.252984 0.344492 -0.411011 0.3011 0.6800 0.3143
vn -0.8387 -0.0000 -0.5446
vn 0.4619 0.5299 -0.7112
vn 0.8387 -0.0000 0.5446
vn -0.4619 -0.5299 0.7112
vn 0.2886 -0.8480 -0.4444
vn -0.2886 0.8480 0.4444
vt 0.625000 0.000000
vt 0.375000 0.250000
vt 0.375000 0.000000
vt 0.625000 0.250000
vt 0.375000 0.500000
vt 0.625000 0.500000
vt 0.375000 0.750000
vt 0.625000 0.750000
vt 0.375000 1.000000
vt 0.125000 0.750000
vt 0.125000 0.500000
vt 0.875000 0.500000
vt 0.625000 1.000000
vt 0.875000 0.750000
s 0
usemtl 
f 2/1/1 3/2/1 1/3/1
f 4/4/2 7/5/2 3/2/2
f 8/6/3 5/7/3 7/5/3
f 6/8/4 1/9/4 5/7/4
f 7/5/5 1/10/5 3/11/5
f 4/12/6 6/8/6 8/6/6
f 2/1/1 4/4/1 3/2/1
f 4/4/2 8/6/2 7/5/2
f 8/6/3 6/8/3 5/7/3
f 6/8/4 2/13/4 1/9/4
f 7/5/5 5/7/5 1/10/5
f 4/12/6 2/14/6 6/8/6
