# Blender 3.6.2
# www.blender.org
mtllib cube.mtl
o Cube
v -0.665412 -0.530652 -1.047516 1.0000 0.0054 0.0001
v -0.723863 0.334697 -0.549764 1.0000 1.0000 0.0000
v -0.096356 -0.092106 -1.743111 0.0000 0.0000 0.0000
v -0.154806 0.773242 -1.245360 0.0250 1.0000 0.0300
v 0.154806 -0.773242 -0.529451 0.9998 0.0221 0.9999
v 0.096356 0.092106 -0.031699 1.0000 1.0000 1.0000
v 0.723863 -0.334697 -1.225046 0.0101 0.0018 1.0000
v 0.665412 0.530652 -0.727295 0.0269 0.9998 0.9998
vn -0.8202 0.2426 -0.5181
vn 0.5691 0.4385 -0.6956
vn 0.8202 -0.2426 0.5181
vn -0.5691 -0.4385 0.6956
vn 0.0585 -0.8653 -0.4978
vn -0.0585 0.8653 0.4978
vt 0.625000 0.000000
vt 0.375000 0.250000
vt 0.375000 0.000000
vt 0.625000 0.250000
vt 0.375000 0.500000
vt 0.625000 0.500000
vt 0.375000 0.750000
vt 0.625000 0.750000
vt 0.375000 1.000000
vt 0.125000 0.750000
vt 0.125000 0.500000
vt 0.875000 0.500000
vt 0.625000 1.000000
vt 0.875000 0.750000
s 0
usemtl 
f 2/1/1 3/2/1 1/3/1
f 4/4/2 7/5/2 3/2/2
f 8/6/3 5/7/3 7/5/3
f 6/8/4 1/9/4 5/7/4
f 7/5/5 1/10/5 3/11/5
f 4/12/6 6/8/6 8/6/6
f 2/1/1 4/4/1 3/2/1
f 4/4/2 8/6/2 7/5/2
f 8/6/3 6/8/3 5/7/3
f 6/8/4 2/13/4 1/9/4
f 7/5/5 5/7/5 1/10/5
f 4/12/6 2/14/6 6/8/6
