# Blender 3.6.2
# www.blender.org
mtllib square.mtl
o Plane.001
v 0.131816 0.100000 -0.000010
v 0.331816 0.100000 -0.000010
v 0.131816 -0.100000 -0.000010
v 0.331816 -0.100000 -0.000010
v 0.131816 -0.100000 -0.000000
v 0.331816 -0.100000 -0.000000
v 0.131816 0.100000 0.000000
v 0.331816 0.100000 0.000000
vn -0.0000 -0.0000 1.0000
vn -0.0000 -0.0000 -1.0000
vt 1.000000 0.000000
vt 0.000000 1.000000
vt 0.000000 0.000000
vt 1.000000 1.000000
s 0
f 2/1/1 1/3/1 3/2/1
f 2/1/1 3/2/1 4/4/1
f 6/1/2 5/3/2 7/2/2
f 6/1/2 7/2/2 8/4/2
